<svg height="531pt" viewBox="0.00 0.00 400.15 531.00" width="400pt" xmlns="http://www.w3.org/2000/svg" xmlns:xlink="http://www.w3.org/1999/xlink">
<g class="graph" id="graph0" transform="scale(1 1) rotate(0) translate(4 527)">
<title>G</title>
<polygon fill="#ffffff" points="-4,4 -4,-527 396.1484,-527 396.1484,4 -4,4" stroke="transparent"/>
<!-- 4947420720 -->
<g class="node" id="node1">
<title>4947420720</title>
<polygon fill="none" points="0,-405.5 0,-449.5 392.1484,-449.5 392.1484,-405.5 0,-405.5" stroke="#000000"/>
<text fill="#000000" font-family="Times,serif" font-size="14.00" text-anchor="middle" x="100.7534" y="-423.3">conv_lst_m2d_8: ConvLSTM2D</text>
<polyline fill="none" points="201.5068,-405.5 201.5068,-449.5 " stroke="#000000"/>
<text fill="#000000" font-family="Times,serif" font-size="14.00" text-anchor="middle" x="229.3413" y="-434.3">input:</text>
<polyline fill="none" points="201.5068,-427.5 257.1758,-427.5 " stroke="#000000"/>
<text fill="#000000" font-family="Times,serif" font-size="14.00" text-anchor="middle" x="229.3413" y="-412.3">output:</text>
<polyline fill="none" points="257.1758,-405.5 257.1758,-449.5 " stroke="#000000"/>
<text fill="#000000" font-family="Times,serif" font-size="14.00" text-anchor="middle" x="324.6621" y="-434.3">(None, None, 2, 1, 1)</text>
<polyline fill="none" points="257.1758,-427.5 392.1484,-427.5 " stroke="#000000"/>
<text fill="#000000" font-family="Times,serif" font-size="14.00" text-anchor="middle" x="324.6621" y="-412.3">(None, None, 2, 1, 1)</text>
</g>
<!-- 4866500536 -->
<g class="node" id="node2">
<title>4866500536</title>
<polygon fill="none" points="21.793,-324.5 21.793,-368.5 370.3555,-368.5 370.3555,-324.5 21.793,-324.5" stroke="#000000"/>
<text fill="#000000" font-family="Times,serif" font-size="14.00" text-anchor="middle" x="100.7534" y="-342.3">activation_15: Activation</text>
<polyline fill="none" points="179.7139,-324.5 179.7139,-368.5 " stroke="#000000"/>
<text fill="#000000" font-family="Times,serif" font-size="14.00" text-anchor="middle" x="207.5483" y="-353.3">input:</text>
<polyline fill="none" points="179.7139,-346.5 235.3828,-346.5 " stroke="#000000"/>
<text fill="#000000" font-family="Times,serif" font-size="14.00" text-anchor="middle" x="207.5483" y="-331.3">output:</text>
<polyline fill="none" points="235.3828,-324.5 235.3828,-368.5 " stroke="#000000"/>
<text fill="#000000" font-family="Times,serif" font-size="14.00" text-anchor="middle" x="302.8691" y="-353.3">(None, None, 2, 1, 1)</text>
<polyline fill="none" points="235.3828,-346.5 370.3555,-346.5 " stroke="#000000"/>
<text fill="#000000" font-family="Times,serif" font-size="14.00" text-anchor="middle" x="302.8691" y="-331.3">(None, None, 2, 1, 1)</text>
</g>
<!-- 4947420720&#45;&gt;4866500536 -->
<g class="edge" id="edge2">
<title>4947420720-&gt;4866500536</title>
<path d="M196.0742,-405.3664C196.0742,-397.1516 196.0742,-387.6579 196.0742,-378.7252" fill="none" stroke="#000000"/>
<polygon fill="#000000" points="199.5743,-378.6068 196.0742,-368.6068 192.5743,-378.6069 199.5743,-378.6068" stroke="#000000"/>
</g>
<!-- 4927108880 -->
<g class="node" id="node3">
<title>4927108880</title>
<polygon fill="none" points="38.1274,-243.5 38.1274,-287.5 354.021,-287.5 354.021,-243.5 38.1274,-243.5" stroke="#000000"/>
<text fill="#000000" font-family="Times,serif" font-size="14.00" text-anchor="middle" x="93.7534" y="-261.3">dense_15: Dense</text>
<polyline fill="none" points="149.3794,-243.5 149.3794,-287.5 " stroke="#000000"/>
<text fill="#000000" font-family="Times,serif" font-size="14.00" text-anchor="middle" x="177.2139" y="-272.3">input:</text>
<polyline fill="none" points="149.3794,-265.5 205.0483,-265.5 " stroke="#000000"/>
<text fill="#000000" font-family="Times,serif" font-size="14.00" text-anchor="middle" x="177.2139" y="-250.3">output:</text>
<polyline fill="none" points="205.0483,-243.5 205.0483,-287.5 " stroke="#000000"/>
<text fill="#000000" font-family="Times,serif" font-size="14.00" text-anchor="middle" x="279.5347" y="-272.3">(None, None, 2, 1, 1)</text>
<polyline fill="none" points="205.0483,-265.5 354.021,-265.5 " stroke="#000000"/>
<text fill="#000000" font-family="Times,serif" font-size="14.00" text-anchor="middle" x="279.5347" y="-250.3">(None, None, 2, 1, 512)</text>
</g>
<!-- 4866500536&#45;&gt;4927108880 -->
<g class="edge" id="edge3">
<title>4866500536-&gt;4927108880</title>
<path d="M196.0742,-324.3664C196.0742,-316.1516 196.0742,-306.6579 196.0742,-297.7252" fill="none" stroke="#000000"/>
<polygon fill="#000000" points="199.5743,-297.6068 196.0742,-287.6068 192.5743,-297.6069 199.5743,-297.6068" stroke="#000000"/>
</g>
<!-- 4947421336 -->
<g class="node" id="node4">
<title>4947421336</title>
<polygon fill="none" points="14.793,-162.5 14.793,-206.5 377.3555,-206.5 377.3555,-162.5 14.793,-162.5" stroke="#000000"/>
<text fill="#000000" font-family="Times,serif" font-size="14.00" text-anchor="middle" x="93.7534" y="-180.3">activation_16: Activation</text>
<polyline fill="none" points="172.7139,-162.5 172.7139,-206.5 " stroke="#000000"/>
<text fill="#000000" font-family="Times,serif" font-size="14.00" text-anchor="middle" x="200.5483" y="-191.3">input:</text>
<polyline fill="none" points="172.7139,-184.5 228.3828,-184.5 " stroke="#000000"/>
<text fill="#000000" font-family="Times,serif" font-size="14.00" text-anchor="middle" x="200.5483" y="-169.3">output:</text>
<polyline fill="none" points="228.3828,-162.5 228.3828,-206.5 " stroke="#000000"/>
<text fill="#000000" font-family="Times,serif" font-size="14.00" text-anchor="middle" x="302.8691" y="-191.3">(None, None, 2, 1, 512)</text>
<polyline fill="none" points="228.3828,-184.5 377.3555,-184.5 " stroke="#000000"/>
<text fill="#000000" font-family="Times,serif" font-size="14.00" text-anchor="middle" x="302.8691" y="-169.3">(None, None, 2, 1, 512)</text>
</g>
<!-- 4927108880&#45;&gt;4947421336 -->
<g class="edge" id="edge4">
<title>4927108880-&gt;4947421336</title>
<path d="M196.0742,-243.3664C196.0742,-235.1516 196.0742,-225.6579 196.0742,-216.7252" fill="none" stroke="#000000"/>
<polygon fill="#000000" points="199.5743,-216.6068 196.0742,-206.6068 192.5743,-216.6069 199.5743,-216.6068" stroke="#000000"/>
</g>
<!-- 4925121872 -->
<g class="node" id="node5">
<title>4925121872</title>
<polygon fill="none" points="29.9517,-81.5 29.9517,-125.5 362.1968,-125.5 362.1968,-81.5 29.9517,-81.5" stroke="#000000"/>
<text fill="#000000" font-family="Times,serif" font-size="14.00" text-anchor="middle" x="93.7534" y="-99.3">dropout_8: Dropout</text>
<polyline fill="none" points="157.5552,-81.5 157.5552,-125.5 " stroke="#000000"/>
<text fill="#000000" font-family="Times,serif" font-size="14.00" text-anchor="middle" x="185.3896" y="-110.3">input:</text>
<polyline fill="none" points="157.5552,-103.5 213.2241,-103.5 " stroke="#000000"/>
<text fill="#000000" font-family="Times,serif" font-size="14.00" text-anchor="middle" x="185.3896" y="-88.3">output:</text>
<polyline fill="none" points="213.2241,-81.5 213.2241,-125.5 " stroke="#000000"/>
<text fill="#000000" font-family="Times,serif" font-size="14.00" text-anchor="middle" x="287.7104" y="-110.3">(None, None, 2, 1, 512)</text>
<polyline fill="none" points="213.2241,-103.5 362.1968,-103.5 " stroke="#000000"/>
<text fill="#000000" font-family="Times,serif" font-size="14.00" text-anchor="middle" x="287.7104" y="-88.3">(None, None, 2, 1, 512)</text>
</g>
<!-- 4947421336&#45;&gt;4925121872 -->
<g class="edge" id="edge5">
<title>4947421336-&gt;4925121872</title>
<path d="M196.0742,-162.3664C196.0742,-154.1516 196.0742,-144.6579 196.0742,-135.7252" fill="none" stroke="#000000"/>
<polygon fill="#000000" points="199.5743,-135.6068 196.0742,-125.6068 192.5743,-135.6069 199.5743,-135.6068" stroke="#000000"/>
</g>
<!-- 4866501880 -->
<g class="node" id="node6">
<title>4866501880</title>
<polygon fill="none" points="38.1274,-.5 38.1274,-44.5 354.021,-44.5 354.021,-.5 38.1274,-.5" stroke="#000000"/>
<text fill="#000000" font-family="Times,serif" font-size="14.00" text-anchor="middle" x="93.7534" y="-18.3">dense_16: Dense</text>
<polyline fill="none" points="149.3794,-.5 149.3794,-44.5 " stroke="#000000"/>
<text fill="#000000" font-family="Times,serif" font-size="14.00" text-anchor="middle" x="177.2139" y="-29.3">input:</text>
<polyline fill="none" points="149.3794,-22.5 205.0483,-22.5 " stroke="#000000"/>
<text fill="#000000" font-family="Times,serif" font-size="14.00" text-anchor="middle" x="177.2139" y="-7.3">output:</text>
<polyline fill="none" points="205.0483,-.5 205.0483,-44.5 " stroke="#000000"/>
<text fill="#000000" font-family="Times,serif" font-size="14.00" text-anchor="middle" x="279.5347" y="-29.3">(None, None, 2, 1, 512)</text>
<polyline fill="none" points="205.0483,-22.5 354.021,-22.5 " stroke="#000000"/>
<text fill="#000000" font-family="Times,serif" font-size="14.00" text-anchor="middle" x="279.5347" y="-7.3">(None, None, 2, 1, 1)</text>
</g>
<!-- 4925121872&#45;&gt;4866501880 -->
<g class="edge" id="edge6">
<title>4925121872-&gt;4866501880</title>
<path d="M196.0742,-81.3664C196.0742,-73.1516 196.0742,-63.6579 196.0742,-54.7252" fill="none" stroke="#000000"/>
<polygon fill="#000000" points="199.5743,-54.6068 196.0742,-44.6068 192.5743,-54.6069 199.5743,-54.6068" stroke="#000000"/>
</g>
<!-- 4947421000 -->
<g class="node" id="node7">
<title>4947421000</title>
<polygon fill="none" points="153.0742,-486.5 153.0742,-522.5 239.0742,-522.5 239.0742,-486.5 153.0742,-486.5" stroke="#000000"/>
<text fill="#000000" font-family="Times,serif" font-size="14.00" text-anchor="middle" x="196.0742" y="-500.3">4947421000</text>
</g>
<!-- 4947421000&#45;&gt;4947420720 -->
<g class="edge" id="edge1">
<title>4947421000-&gt;4947420720</title>
<path d="M196.0742,-486.2521C196.0742,-478.3888 196.0742,-468.9498 196.0742,-459.9612" fill="none" stroke="#000000"/>
<polygon fill="#000000" points="199.5743,-459.7376 196.0742,-449.7377 192.5743,-459.7377 199.5743,-459.7376" stroke="#000000"/>
</g>
</g>
</svg>
